HIERARCHY
ROOT Root
{
  OFFSET 0.0 0.0 0.0
  CHANNELS 6 Xposition Yposition Zposition Zrotation Yrotation Xrotation
  JOINT Hips
  {
    OFFSET 0.0 100.0 0.0
    CHANNELS 6 Xposition Yposition Zposition Zrotation Yrotation Xrotation
    JOINT Spine1
    {
      OFFSET 5.003913 -0.037094 -0.013727
      CHANNELS 3 Zrotation Yrotation Xrotation
      JOINT Spine2
      {
        OFFSET 7.125363 -1e-06 0.0
        CHANNELS 3 Zrotation Yrotation Xrotation
        JOINT Chest
        {
          OFFSET 7.594027 1e-06 0.0
          CHANNELS 3 Zrotation Yrotation Xrotation
          JOINT Neck1
          {
            OFFSET 26.313086 -0.460272 -0.181672
            CHANNELS 3 Zrotation Yrotation Xrotation
            JOINT Neck2
            {
              OFFSET 8.045911 0.0 0.0
              CHANNELS 3 Zrotation Yrotation Xrotation
              JOINT Head
              {
                OFFSET 6.432774 0.0 0.0
                CHANNELS 3 Zrotation Yrotation Xrotation
                JOINT HeadEnd
                {
                  OFFSET 16.169773 0.06451 0.00362
                  CHANNELS 3 Zrotation Yrotation Xrotation
                }
                JOINT Jaw
                {
                  OFFSET 0.108741 3.12938 0.002639
                  CHANNELS 3 Zrotation Yrotation Xrotation
                }
                JOINT LeftEye
                {
                  OFFSET 4.45173 8.166359 3.206392
                  CHANNELS 3 Zrotation Yrotation Xrotation
                }
                JOINT RightEye
                {
                  OFFSET 4.436895 8.135758 -3.222429
                  CHANNELS 3 Zrotation Yrotation Xrotation
                }
              }
            }
          }
          JOINT LeftShoulder
          {
            OFFSET 23.218927 5.195579 1.621656
            CHANNELS 3 Zrotation Yrotation Xrotation
            JOINT LeftArm
            {
              OFFSET 15.902118 2e-06 -2e-06
              CHANNELS 3 Zrotation Yrotation Xrotation
              JOINT LeftForeArm
              {
                OFFSET 28.739307 0.0 -1e-06
                CHANNELS 3 Zrotation Yrotation Xrotation
                JOINT LeftHand
                {
                  OFFSET 27.093981 -4e-06 0.0
                  CHANNELS 3 Zrotation Yrotation Xrotation
                  JOINT LeftHandThumb1
                  {
                    OFFSET 2.276781 3.380274 0.83384
                    CHANNELS 3 Zrotation Yrotation Xrotation
                    JOINT LeftHandThumb2
                    {
                      OFFSET 4.705309 -1e-06 -1e-06
                      CHANNELS 3 Zrotation Yrotation Xrotation
                      JOINT LeftHandThumb3
                      {
                        OFFSET 2.798515 0.0 3e-06
                        CHANNELS 3 Zrotation Yrotation Xrotation
                        JOINT LeftHandThumbEnd
                        {
                          OFFSET 3.180793 4e-06 -4e-06
                          CHANNELS 3 Zrotation Yrotation Xrotation
                        }
                      }
                    }
                  }
                  JOINT LeftHandIndex1
                  {
                    OFFSET 3.247786 2.352677 0.137192
                    CHANNELS 3 Zrotation Yrotation Xrotation
                    JOINT LeftHandIndex2
                    {
                      OFFSET 6.367095 1e-06 0.0
                      CHANNELS 3 Zrotation Yrotation Xrotation
                      JOINT LeftHandIndex3
                      {
                        OFFSET 3.662364 0.0 0.0
                        CHANNELS 3 Zrotation Yrotation Xrotation
                        JOINT LeftHandIndex4
                        {
                          OFFSET 2.329242 4e-06 -4e-06
                          CHANNELS 3 Zrotation Yrotation Xrotation
                          JOINT LeftHandIndexEnd
                          {
                            OFFSET 2.767823 1e-06 0.0
                            CHANNELS 3 Zrotation Yrotation Xrotation
                          }
                        }
                      }
                    }
                  }
                  JOINT LeftHandMiddle1
                  {
                    OFFSET 3.163612 0.945023 -0.406112
                    CHANNELS 3 Zrotation Yrotation Xrotation
                    JOINT LeftHandMiddle2
                    {
                      OFFSET 6.276789 3e-06 0.0
                      CHANNELS 3 Zrotation Yrotation Xrotation
                      JOINT LeftHandMiddle3
                      {
                        OFFSET 4.35652 -1e-06 4e-06
                        CHANNELS 3 Zrotation Yrotation Xrotation
                        JOINT LeftHandMiddle4
                        {
                          OFFSET 2.996877 0.0 8e-06
                          CHANNELS 3 Zrotation Yrotation Xrotation
                          JOINT LeftHandMiddleEnd
                          {
                            OFFSET 2.323256 3e-06 -4e-06
                            CHANNELS 3 Zrotation Yrotation Xrotation
                          }
                        }
                      }
                    }
                  }
                  JOINT LeftHandRing1
                  {
                    OFFSET 2.882606 -0.309162 0.107445
                    CHANNELS 3 Zrotation Yrotation Xrotation
                    JOINT LeftHandRing2
                    {
                      OFFSET 6.033198 0.0 4e-06
                      CHANNELS 3 Zrotation Yrotation Xrotation
                      JOINT LeftHandRing3
                      {
                        OFFSET 4.350578 3e-06 0.0
                        CHANNELS 3 Zrotation Yrotation Xrotation
                        JOINT LeftHandRing4
                        {
                          OFFSET 2.651321 2e-06 -7e-06
                          CHANNELS 3 Zrotation Yrotation Xrotation
                          JOINT LeftHandRingEnd
                          {
                            OFFSET 1.937663 1e-06 -4e-06
                            CHANNELS 3 Zrotation Yrotation Xrotation
                          }
                        }
                      }
                    }
                  }
                  JOINT LeftHandPinky1
                  {
                    OFFSET 2.865315 -1.525436 0.575687
                    CHANNELS 3 Zrotation Yrotation Xrotation
                    JOINT LeftHandPinky2
                    {
                      OFFSET 5.54936 1e-06 -8e-06
                      CHANNELS 3 Zrotation Yrotation Xrotation
                      JOINT LeftHandPinky3
                      {
                        OFFSET 3.070974 0.0 -4e-06
                        CHANNELS 3 Zrotation Yrotation Xrotation
                        JOINT LeftHandPinky4
                        {
                          OFFSET 1.549672 1e-06 0.0
                          CHANNELS 3 Zrotation Yrotation Xrotation
                          JOINT LeftHandPinkyEnd
                          {
                            OFFSET 1.952123 0.0 0.0
                            CHANNELS 3 Zrotation Yrotation Xrotation
                          }
                        }
                      }
                    }
                  }
                }
              }
            }
          }
          JOINT RightShoulder
          {
            OFFSET 23.161716 5.296122 -1.380114
            CHANNELS 3 Zrotation Yrotation Xrotation
            JOINT RightArm
            {
              OFFSET -16.027195 -2e-06 1.1e-05
              CHANNELS 3 Zrotation Yrotation Xrotation
              JOINT RightForeArm
              {
                OFFSET -28.736639 4e-06 2e-06
                CHANNELS 3 Zrotation Yrotation Xrotation
                JOINT RightHand
                {
                  OFFSET -27.133619 6e-06 0.0
                  CHANNELS 3 Zrotation Yrotation Xrotation
                  JOINT RightHandThumb1
                  {
                    OFFSET -2.274328 -3.351035 -0.83067
                    CHANNELS 3 Zrotation Yrotation Xrotation
                    JOINT RightHandThumb2
                    {
                      OFFSET -4.703594 -3e-06 2e-06
                      CHANNELS 3 Zrotation Yrotation Xrotation
                      JOINT RightHandThumb3
                      {
                        OFFSET -2.794935 -4e-06 -3e-06
                        CHANNELS 3 Zrotation Yrotation Xrotation
                        JOINT RightHandThumbEnd
                        {
                          OFFSET -3.183852 4e-06 1e-06
                          CHANNELS 3 Zrotation Yrotation Xrotation
                        }
                      }
                    }
                  }
                  JOINT RightHandIndex1
                  {
                    OFFSET -3.253496 -2.33755 -0.127667
                    CHANNELS 3 Zrotation Yrotation Xrotation
                    JOINT RightHandIndex2
                    {
                      OFFSET -6.344434 0.0 0.0
                      CHANNELS 3 Zrotation Yrotation Xrotation
                      JOINT RightHandIndex3
                      {
                        OFFSET -3.654871 0.0 -8e-06
                        CHANNELS 3 Zrotation Yrotation Xrotation
                        JOINT RightHandIndex4
                        {
                          OFFSET -2.327586 -1e-06 0.0
                          CHANNELS 3 Zrotation Yrotation Xrotation
                          JOINT RightHandIndexEnd
                          {
                            OFFSET -2.770001 3e-06 8e-06
                            CHANNELS 3 Zrotation Yrotation Xrotation
                          }
                        }
                      }
                    }
                  }
                  JOINT RightHandMiddle1
                  {
                    OFFSET -3.168223 -0.944764 0.411762
                    CHANNELS 3 Zrotation Yrotation Xrotation
                    JOINT RightHandMiddle2
                    {
                      OFFSET -6.266691 -1e-06 -4e-06
                      CHANNELS 3 Zrotation Yrotation Xrotation
                      JOINT RightHandMiddle3
                      {
                        OFFSET -4.348901 0.0 0.0
                        CHANNELS 3 Zrotation Yrotation Xrotation
                        JOINT RightHandMiddle4
                        {
                          OFFSET -3.00024 2e-06 -4e-06
                          CHANNELS 3 Zrotation Yrotation Xrotation
                          JOINT RightHandMiddleEnd
                          {
                            OFFSET -2.321477 -4e-06 -4e-06
                            CHANNELS 3 Zrotation Yrotation Xrotation
                          }
                        }
                      }
                    }
                  }
                  JOINT RightHandRing1
                  {
                    OFFSET -2.885654 0.293261 -0.119232
                    CHANNELS 3 Zrotation Yrotation Xrotation
                    JOINT RightHandRing2
                    {
                      OFFSET -6.032835 -1e-06 -4e-06
                      CHANNELS 3 Zrotation Yrotation Xrotation
                      JOINT RightHandRing3
                      {
                        OFFSET -4.33881 0.0 -4e-06
                        CHANNELS 3 Zrotation Yrotation Xrotation
                        JOINT RightHandRing4
                        {
                          OFFSET -2.654903 -4e-06 -4e-06
                          CHANNELS 3 Zrotation Yrotation Xrotation
                          JOINT RightHandRingEnd
                          {
                            OFFSET -1.935122 0.0 4e-06
                            CHANNELS 3 Zrotation Yrotation Xrotation
                          }
                        }
                      }
                    }
                  }
                  JOINT RightHandPinky1
                  {
                    OFFSET -2.866241 1.503904 -0.60527
                    CHANNELS 3 Zrotation Yrotation Xrotation
                    JOINT RightHandPinky2
                    {
                      OFFSET -5.553177 -2e-06 0.0
                      CHANNELS 3 Zrotation Yrotation Xrotation
                      JOINT RightHandPinky3
                      {
                        OFFSET -3.062664 -1e-06 -4e-06
                        CHANNELS 3 Zrotation Yrotation Xrotation
                        JOINT RightHandPinky4
                        {
                          OFFSET -1.546529 2e-06 4e-06
                          CHANNELS 3 Zrotation Yrotation Xrotation
                          JOINT RightHandPinkyEnd
                          {
                            OFFSET -1.952341 0.0 -4e-06
                            CHANNELS 3 Zrotation Yrotation Xrotation
                          }
                        }
                      }
                    }
                  }
                }
              }
            }
          }
        }
      }
    }
    JOINT LeftLeg
    {
      OFFSET -8.443107 2.567604 10.043214
      CHANNELS 3 Zrotation Yrotation Xrotation
      JOINT LeftShin
      {
        OFFSET 43.229198 1e-06 -1e-06
        CHANNELS 3 Zrotation Yrotation Xrotation
        JOINT LeftFoot
        {
          OFFSET 42.298611 1e-06 1e-06
          CHANNELS 3 Zrotation Yrotation Xrotation
          JOINT LeftToeBase
          {
            OFFSET 14.165858 1e-06 0.0
            CHANNELS 3 Zrotation Yrotation Xrotation
            JOINT LeftToeEnd
            {
              OFFSET 6.7141 -0.234461 0.0
              CHANNELS 3 Zrotation Yrotation Xrotation
            }
          }
        }
      }
    }
    JOINT RightLeg
    {
      OFFSET -8.303923 2.592729 -10.047278
      CHANNELS 3 Zrotation Yrotation Xrotation
      JOINT RightShin
      {
        OFFSET -43.369682 0.0 1e-06
        CHANNELS 3 Zrotation Yrotation Xrotation
        JOINT RightFoot
        {
          OFFSET -42.260784 4e-06 2e-06
          CHANNELS 3 Zrotation Yrotation Xrotation
          JOINT RightToeBase
          {
            OFFSET -14.222245 -2e-06 -1e-06
            CHANNELS 3 Zrotation Yrotation Xrotation
            JOINT RightToeEnd
            {
              OFFSET -6.660062 0.232574 -2e-06
              CHANNELS 3 Zrotation Yrotation Xrotation
            }
          }
        }
      }
    }
  }
}
MOTION
Frames: 4
Frame Time: 0.03333333333333333
0.0 0.0 0.0 0.0 -0.0 0.0 5.160527 98.731323 -4.424297 87.742363 14.117182 91.824738 -7.127908 1.232346 0.011496 -13.912589 -0.489335 -0.465158 16.005016 -1.262199 -2.401726 26.487358 0.83844 2.73069 -2.739287 -0.8435 -1.145381 -26.882881 -0.518667 -1.067 7e-06 -0.0 0.0 0.068828 -0.071611 -0.19271 0.316598 -0.118601 -0.115919 0.336309 -0.028204 -0.269469 -100.984474 -75.680939 111.052338 46.652527 -62.519394 -31.606394 28.07962 0.367557 0.779147 -0.550901 -0.09197 -12.396701 17.636621 -26.322729 52.411194 -19.466661 -14.395596 29.410389 -0.0 -8.774822 -2e-06 15.611205 -18.000977 6.645811 -0.609779 -1.795653 -3.889328 -4.807087 -11.046809 -2.93785 2e-06 -20.976015 -0.0 -5.019969 -25.033552 -4.031878 6e-06 0.0 -1e-06 -10.634531 -5.686969 -3.565587 10.573275 -17.922947 -3.113899 3e-06 -13.821206 0.0 -0.501777 -31.181498 -4.027013 -11.732574 -59.348053 7.526 -13.982713 -7.150197 -2.875042 13.77273 -8.401491 -3.218242 0.347734 -34.211552 0.771655 -0.963029 -17.733366 2.621019 -1e-06 1e-06 -1e-06 -17.346416 -20.095213 -4.201782 21.757557 -1.638375 3.866427 4e-06 -6.338823 1e-06 -1.69759 -22.591742 -6.194004 -1e-06 -6e-06 -2e-06 89.054367 -79.577736 100.907082 55.813286 -61.285439 -31.280733 28.519579 -0.456934 0.348096 -1.012757 4.536086 -16.222584 22.182114 -20.375891 49.933315 -16.701817 -16.74353 28.47653 -2e-06 -12.690602 -1e-06 15.42406 -16.8388 2.956612 -0.105917 -1.513857 -4.275881 -5.039041 -5.612873 -2.953557 4e-06 -11.020525 -2e-06 -6.1113 -15.895336 -3.840471 1e-06 0.0 1e-06 -10.283369 -5.680288 -4.341838 11.028296 -11.302404 -2.372633 -1.384271 -14.238579 -6.320121 -0.625438 -26.924187 -3.827602 -4.413643 -49.196854 -2.713479 -13.708522 -7.363477 -3.72094 18.141146 -14.052738 -3.242674 6e-06 -18.78727 -2e-06 -0.42971 -8.45604 2.555503 0.0 -0.0 -0.0 -15.923532 -20.094484 -5.473584 30.419207 -7.190823 1.735926 1e-06 -8.162925 -1e-06 -1.861899 -22.861467 -6.167943 -0.0 -0.0 -1e-06 -159.348312 0.31269 -11.757293 11.71112 -0.034606 -0.175029 -84.799767 -3.284516 -0.419821 -8.208662 1.480808 2.027358 -0.999999 -0.0 -0.0 0.892571 -4.268403 -3.003463 21.932478 -0.117901 0.215511 -70.872742 -6.201488 -8.602605 -9.478822 0.939724 1.616273 -1.0 0.0 0.0 
0.0 0.0 0.0 0.0 -0.0 0.0 5.041999 98.572098 -2.490282 87.599426 14.303122 94.480461 -7.337995 1.310348 -0.175476 -13.916951 -0.507302 -0.467843 15.765347 -1.719556 -2.313232 26.774181 1.350895 2.887671 -2.745347 -0.872781 -1.296173 -26.125435 -0.345685 -1.889366 6e-06 0.0 -0.0 0.056246 -0.041636 -0.110905 0.313833 -0.10045 -0.036498 0.333044 0.013773 -0.184883 -99.580101 -75.902603 109.655464 46.774418 -62.236389 -31.444832 28.123926 0.389525 0.678418 -0.678648 -0.03357 -13.086367 17.636625 -26.322718 52.411171 -19.466658 -14.395597 29.410381 0.0 -8.774819 -2e-06 15.775248 -17.998287 6.485424 -0.609775 -1.795653 -3.889327 -4.807089 -11.046808 -2.93785 3e-06 -20.976011 -1e-06 -5.019969 -25.033552 -4.03188 7e-06 0.0 -2e-06 -10.63453 -5.68697 -3.565587 10.573275 -17.922947 -3.1139 -0.0 -13.821206 1e-06 -0.501776 -31.181498 -4.027016 -11.766365 -59.316593 7.421451 -13.982712 -7.150196 -2.875041 13.772732 -8.401489 -3.218242 0.347733 -34.211536 0.771653 -0.963029 -17.733362 2.621017 -1e-06 -0.0 0.0 -17.346413 -20.095211 -4.20178 21.757557 -1.638376 3.866426 1e-06 -6.338821 1e-06 -1.69759 -22.59174 -6.194004 1e-06 -4e-06 -4e-06 89.41011 -79.78038 100.449509 54.338573 -61.599449 -30.178539 28.798069 -0.705298 0.276314 -0.795351 4.057464 -15.984795 22.182119 -20.375889 49.9333 -16.701811 -16.74353 28.476522 -3e-06 -12.690603 -1e-06 15.471578 -16.906784 2.93069 -0.105918 -1.513856 -4.275881 -5.039042 -5.61287 -2.953555 5e-06 -11.020523 -2e-06 -6.111298 -15.89533 -3.840469 -0.0 1e-06 0.0 -10.283373 -5.680288 -4.341836 11.028296 -11.302403 -2.372632 -1.384269 -14.238577 -6.320119 -0.625437 -26.924191 -3.827597 -4.130638 -49.516121 -2.968501 -13.708527 -7.363475 -3.720938 18.141151 -14.052739 -3.242673 5e-06 -18.78727 -0.0 -0.429712 -8.456041 2.555504 1e-06 1e-06 -1e-06 -15.923541 -20.094482 -5.473582 30.419218 -7.190827 1.735927 2e-06 -8.162925 -1e-06 -1.861901 -22.861469 -6.167942 -0.0 -1e-06 -1e-06 -158.749481 -1.189257 -11.431717 13.000506 -0.046162 0.011843 -85.815224 -1.487964 -0.623907 -8.109884 1.545708 2.066695 -0.999999 0.0 0.0 -0.196658 -3.53918 -4.333049 16.69768 -0.085723 0.076673 -69.341713 -5.956248 -9.449375 -9.327982 0.94997 1.611282 -1.000003 0.0 -0.0 
0.0 0.0 0.0 0.0 -0.0 0.0 4.888417 98.279694 -0.532669 87.808495 14.404003 97.045586 -7.633275 1.225002 -0.230373 -14.026324 -0.571324 -0.376278 15.708455 -2.222222 -2.045917 26.861034 1.857426 3.015119 -2.798938 -0.886481 -1.410274 -25.195873 -0.04529 -2.703846 6e-06 0.0 -0.0 0.038113 -0.025671 -0.065924 0.279047 -0.090416 0.007087 0.307843 0.034909 -0.137176 -98.927216 -76.057533 109.205269 46.905674 -61.682053 -31.510876 28.417795 0.351228 0.514865 -1.00855 0.191977 -13.339566 17.636635 -26.322718 52.411182 -19.466665 -14.395598 29.410393 -1e-06 -8.774821 -2e-06 15.846575 -17.956516 6.400039 -0.609777 -1.795656 -3.889326 -4.807088 -11.046811 -2.937852 5e-06 -20.976019 -3e-06 -5.019972 -25.033562 -4.031885 6e-06 1e-06 2e-06 -10.634536 -5.686973 -3.565585 10.573275 -17.922951 -3.113904 1e-06 -13.821211 -1e-06 -0.501774 -31.181507 -4.02702 -11.586943 -59.335049 7.191745 -13.982716 -7.150201 -2.875041 13.77273 -8.401491 -3.218242 0.347737 -34.211555 0.771648 -0.963027 -17.73337 2.621017 -0.0 0.0 -1e-06 -17.34642 -20.095221 -4.201782 21.757559 -1.638375 3.866428 1e-06 -6.338824 -1e-06 -1.697589 -22.591747 -6.19401 0.0 -4e-06 -2e-06 89.425232 -79.945877 100.456665 52.865723 -61.732788 -28.910992 29.248545 -0.887439 0.246053 -0.803095 3.753995 -16.503084 22.182119 -20.375896 49.933327 -16.701817 -16.74353 28.476532 -3e-06 -12.690602 -1e-06 15.43334 -16.913265 2.922979 -0.105919 -1.513856 -4.275882 -5.039046 -5.612872 -2.953556 5e-06 -11.020524 -2e-06 -6.111298 -15.895332 -3.840471 -1e-06 -0.0 1e-06 -10.283372 -5.680287 -4.341839 11.028294 -11.302406 -2.372633 -1.384268 -14.238579 -6.320122 -0.625438 -26.924187 -3.827603 -3.956771 -49.629711 -3.155745 -13.708526 -7.363475 -3.72094 18.141148 -14.052739 -3.242674 7e-06 -18.78727 -1e-06 -0.429712 -8.456042 2.555503 2e-06 2e-06 -1e-06 -15.923536 -20.094482 -5.473586 30.419222 -7.190827 1.735927 1e-06 -8.162927 -1e-06 -1.861902 -22.861473 -6.167941 -2e-06 -2e-06 -1e-06 -158.445862 -2.45476 -11.141631 14.759616 -0.066076 0.131223 -87.008232 0.592869 -0.750339 -8.111956 1.559935 2.092225 -0.999999 0.0 0.0 -1.36904 -3.140378 -6.127981 11.659521 -0.067343 -0.127962 -67.991997 -5.34535 -10.992386 -9.379372 0.95555 1.592529 -1.000001 -0.0 0.0 
0.0 0.0 0.0 0.0 -0.0 0.0 4.6907 97.949562 1.561287 88.280418 14.375891 99.396622 -7.959411 1.049696 -0.165996 -14.199654 -0.606212 -0.174358 15.767916 -2.804317 -1.747157 26.841446 2.277325 3.185991 -2.86692 -0.927395 -1.49373 -24.402544 0.35412 -3.367974 6e-06 -0.0 -0.0 0.016215 -0.017989 -0.051706 0.232714 -0.079261 0.021893 0.271095 0.038468 -0.122326 -98.915398 -76.074715 109.386101 46.87088 -61.005596 -31.565136 28.816559 0.232305 0.316306 -1.245749 0.597964 -13.187472 17.636629 -26.322731 52.411186 -19.46666 -14.395598 29.410389 -0.0 -8.774819 -3e-06 15.789306 -17.823486 6.368543 -0.609775 -1.795653 -3.889328 -4.807089 -11.046811 -2.937851 4e-06 -20.976015 -0.0 -5.019971 -25.033556 -4.031883 4e-06 1e-06 1e-06 -10.634537 -5.686969 -3.565589 10.573276 -17.922951 -3.113899 2e-06 -13.821209 1e-06 -0.501779 -31.181507 -4.027017 -11.457152 -59.424366 7.06229 -13.982712 -7.150198 -2.875043 13.772731 -8.401491 -3.218241 0.347731 -34.211555 0.771657 -0.96303 -17.733366 2.621019 1e-06 1e-06 -0.0 -17.346422 -20.095217 -4.201782 21.757557 -1.638375 3.866428 1e-06 -6.338824 -1e-06 -1.697591 -22.591743 -6.194005 1e-06 -5e-06 -2e-06 88.494667 -80.021904 101.560692 51.38612 -61.739807 -27.601189 29.999321 -0.895538 0.264264 -0.750111 3.436475 -17.434774 22.182114 -20.375904 49.933327 -16.701815 -16.743528 28.476536 -2e-06 -12.690605 -1e-06 15.354959 -16.914326 2.919461 -0.105919 -1.513856 -4.275882 -5.03904 -5.612873 -2.953557 3e-06 -11.020526 -2e-06 -6.111294 -15.895338 -3.84047 -1e-06 1e-06 1e-06 -10.283369 -5.680289 -4.34184 11.028296 -11.302406 -2.372633 -1.384267 -14.238583 -6.320121 -0.625437 -26.924194 -3.827601 -3.860821 -49.601929 -3.263421 -13.708524 -7.363476 -3.720939 18.141151 -14.052742 -3.242675 4e-06 -18.787273 -0.0 -0.42971 -8.456045 2.555504 1e-06 3e-06 -2e-06 -15.923532 -20.094484 -5.473586 30.419214 -7.190827 1.735925 2e-06 -8.162928 -0.0 -1.861903 -22.861473 -6.167943 -1e-06 -2e-06 0.0 -158.139252 -3.460534 -10.791088 16.51475 -0.089625 0.20925 -87.821259 2.633029 -0.937989 -8.471702 1.570124 2.097499 -0.999999 1e-06 0.0 -2.664543 -2.882145 -8.019468 7.35828 -0.07466 -0.299532 -66.826279 -5.171735 -12.593983 -9.501586 0.951267 1.566875 -1.000002 0.0 0.0 
